<?xml version="1.0" standalone="no"?>
<!DOCTYPE svg PUBLIC "-//W3C//DTD SVG 20010904//EN"
 "http://www.w3.org/TR/2001/REC-SVG-20010904/DTD/svg10.dtd">
<svg version="1.0" xmlns="http://www.w3.org/2000/svg"
 width="300.000000pt" height="207.000000pt" viewBox="0 0 300.000000 207.000000"
 preserveAspectRatio="xMidYMid meet">
<metadata>
Created by potrace 1.10, written by Peter Selinger 2001-2011
</metadata>
<g transform="translate(0.000000,207.000000) scale(0.100000,-0.100000)"
fill="#000000" stroke="none">
<path d="M845 2062 c-1 -2 -120 -4 -264 -4 -144 -1 -261 -5 -261 -9 0 -8 687
-2 1110 11 l285 8 -433 -2 c-239 0 -435 -2 -437 -4z"/>
<path d="M1812 2063 c-6 -2 -10 -8 -8 -12 3 -4 -122 -9 -277 -10 -155 -2 -370
-4 -477 -5 -107 -1 -327 -3 -487 -4 -199 -1 -293 -5 -293 -13 0 -5 4 -8 8 -5
5 3 202 5 438 5 236 0 436 1 444 2 8 0 246 2 529 4 282 2 516 6 519 9 5 5
-325 12 -372 7 -16 -1 -17 1 -6 14 12 15 6 18 -18 8z"/>
<path d="M1925 2061 c-12 -5 9 -7 50 -4 91 6 105 11 30 12 -33 0 -69 -4 -80
-8z"/>
<path d="M2118 2059 c-5 -3 53 -7 128 -8 76 -1 136 0 133 3 -7 7 -249 12 -261
5z"/>
<path d="M2545 2060 c-4 -6 32 -10 103 -10 60 0 165 -2 233 -5 80 -2 106 -1
74 4 -27 4 -126 9 -219 10 -93 1 -173 4 -177 7 -4 2 -10 0 -14 -6z"/>
<path d="M278 2055 c-2 -3 -66 -5 -141 -6 -76 0 -135 -4 -132 -9 2 -4 18 -10
34 -12 17 -2 28 -1 25 4 -3 4 0 8 5 8 6 0 11 -5 11 -12 0 -9 3 -9 12 0 7 7 23
12 37 11 l26 -1 -25 -9 c-22 -8 -22 -8 5 -3 17 3 59 8 95 11 36 3 69 9 75 14
5 6 3 9 -6 9 -9 0 -18 -2 -21 -5z"/>
<path d="M2345 2040 c-116 -6 -114 -6 65 -9 102 -1 250 -6 329 -10 80 -4 159
-4 175 0 39 9 45 8 -214 15 -118 3 -219 6 -225 7 -5 1 -64 0 -130 -3z"/>
<path d="M1336 2011 c-5 -8 38 -11 164 -11 122 0 169 -3 164 -11 -4 -8 -1 -8
13 -1 10 6 34 8 53 5 57 -8 529 -11 480 -3 -36 6 -26 7 53 8 63 1 96 -2 92 -8
-3 -6 4 -10 17 -10 18 0 20 2 8 10 -11 7 -3 10 28 10 26 0 41 -4 37 -10 -3 -5
-2 -10 4 -10 5 0 13 5 16 10 3 6 15 10 26 10 11 0 18 -4 14 -9 -3 -6 71 -8
192 -6 109 3 217 1 240 -4 37 -7 75 0 63 12 -12 12 -956 23 -1225 15 -5 0
-105 3 -221 7 -154 6 -213 5 -218 -4z"/>
<path d="M73 1988 c23 -21 37 -23 37 -7 0 6 6 9 13 6 7 -3 20 0 29 7 13 9 5
12 -42 11 -56 0 -57 -1 -37 -17z"/>
<path d="M417 1999 c11 -11 403 -18 409 -7 9 14 24 9 18 -7 -5 -12 -35 -15
-183 -15 -97 1 -216 -1 -266 -4 -49 -2 -80 -2 -67 0 12 3 22 10 22 16 0 6 9 8
20 5 11 -3 22 -1 25 3 7 12 -198 10 -216 -1 -17 -10 2 -13 69 -9 25 1 42 -3
42 -9 0 -7 -45 -11 -139 -11 -77 0 -142 -4 -145 -9 -7 -11 25 -25 33 -14 9 12
83 14 76 3 -7 -11 8 -14 18 -4 3 3 48 8 100 10 l95 4 36 -55 c32 -47 40 -54
56 -45 10 5 44 12 76 15 44 4 54 3 39 -5 -18 -9 -17 -10 8 -7 18 3 27 0 27 -9
0 -8 -5 -14 -11 -14 -6 0 -9 -7 -5 -15 3 -8 -2 -19 -12 -24 -24 -12 -79 -2
-86 16 -4 10 -1 13 14 8 10 -3 32 1 47 9 l28 15 -27 1 c-16 0 -28 -5 -28 -12
0 -9 -2 -10 -8 -2 -11 17 -45 25 -61 15 -11 -7 -6 -20 25 -62 34 -47 39 -51
42 -31 2 13 10 22 20 22 13 0 14 -2 4 -9 -18 -11 -18 -36 1 -156 9 -55 19
-135 23 -178 4 -43 10 -80 15 -82 15 -10 39 277 39 468 l0 137 270 0 c188 0
270 -3 270 -11 0 -7 -26 -10 -77 -8 -64 3 -78 1 -78 -11 0 -12 14 -15 73 -14
39 1 72 -2 72 -7 0 -5 -31 -9 -70 -9 -49 0 -70 -4 -70 -12 -1 -40 65 -527 70
-521 9 10 67 359 82 491 l12 102 203 0 203 0 0 -27 c0 -94 245 -1143 268
-1151 9 -3 12 15 12 60 -1 188 -20 908 -26 996 -7 99 -8 102 -31 102 -13 0
-22 -4 -19 -9 3 -5 -10 -9 -28 -8 -19 0 -33 5 -30 9 3 4 -2 8 -11 8 -9 0 -14
-4 -11 -9 8 -12 -96 -23 -108 -11 -7 7 6 10 37 10 26 0 47 3 47 8 0 4 -20 6
-45 4 -30 -3 -45 0 -45 8 0 8 23 11 75 9 41 -1 78 1 82 4 3 4 16 7 27 6 19 -1
19 -1 -2 -7 -13 -4 87 -7 222 -7 l246 0 86 -210 c47 -115 117 -289 156 -385
70 -174 88 -210 88 -177 0 9 -11 133 -24 274 -14 142 -27 294 -31 338 -10 147
-12 152 -46 147 -16 -2 -29 -9 -29 -14 0 -6 7 -7 16 -4 8 3 13 2 10 -3 -6 -10
-88 -7 -106 4 -6 4 -14 4 -17 1 -4 -3 -1 -6 5 -6 7 0 12 -4 12 -10 0 -5 -7 -7
-15 -4 -8 4 -15 1 -15 -5 0 -13 50 -14 105 -1 40 9 65 -4 46 -23 -11 -11 -141
-16 -147 -6 -2 4 -13 5 -23 2 -10 -3 -22 0 -25 6 -4 6 1 11 11 11 12 0 19 8
20 20 1 13 -4 20 -17 20 -10 0 -21 4 -24 9 -8 12 133 21 334 21 l175 0 0 -760
0 -760 -165 0 -165 0 -39 103 c-21 56 -49 127 -61 157 -13 30 -60 149 -105
265 -45 116 -89 230 -99 255 -10 25 -31 86 -45 135 -35 117 -36 119 -40 114
-4 -5 24 -1051 29 -1066 3 -8 22 -13 50 -13 28 0 44 4 40 10 -3 6 -19 10 -36
10 -37 0 -37 13 -1 27 15 7 20 12 12 11 -32 -1 -39 3 -37 22 1 11 8 20 17 21
10 0 9 3 -5 9 -11 5 -14 9 -7 9 8 1 10 6 5 14 -12 20 -14 47 -2 47 6 0 7 5 2
12 -4 7 -9 54 -10 103 -1 50 -4 179 -8 288 -3 115 -2 197 4 197 5 0 19 -26 31
-57 12 -32 28 -71 35 -88 7 -16 61 -151 120 -300 66 -167 116 -280 131 -295
23 -24 31 -25 162 -28 75 -2 141 -8 146 -13 6 -5 16 -3 27 7 9 8 19 12 22 7 7
-12 237 -4 237 8 0 7 -39 10 -102 9 -134 -2 -140 -2 -133 10 3 6 45 11 93 12
l87 2 -80 6 c-82 6 -86 15 -5 10 25 -1 42 1 38 5 -3 4 -30 8 -58 10 -49 3 -84
15 -45 15 15 0 16 3 7 12 -23 23 -14 41 18 36 17 -3 33 -1 35 3 3 4 21 3 40
-1 20 -5 33 -4 29 1 -8 13 10 11 24 -3 9 -9 12 -9 12 1 0 8 7 11 20 8 12 -3
18 -1 14 5 -4 6 -28 8 -55 6 -27 -3 -46 -2 -44 2 7 12 -22 20 -70 20 -24 0
-47 5 -50 10 -3 6 3 10 15 10 18 0 19 3 10 20 -14 26 2 26 25 0 11 -12 31 -20
52 -20 20 0 33 -5 33 -12 0 -10 2 -10 8 -1 4 6 24 14 45 18 45 9 48 22 5 23
-23 1 -28 -2 -18 -8 10 -7 -1 -9 -35 -9 -47 2 -48 2 -15 9 33 7 31 7 -17 9
-29 0 -53 5 -53 10 0 5 -15 12 -32 16 -28 5 -30 8 -13 13 11 4 53 7 92 7 40 0
73 3 73 8 0 4 -37 7 -82 8 -56 0 -76 3 -63 9 18 8 18 9 2 9 -10 1 -16 5 -12
10 3 5 -3 12 -12 14 -17 4 145 12 195 9 12 0 22 3 22 9 0 5 -26 9 -57 10 -54
1 -56 2 -23 10 19 5 46 6 58 3 15 -3 21 -1 17 6 -4 7 -38 8 -99 4 -61 -5 -99
-3 -112 4 -16 9 -9 12 36 13 82 2 102 5 109 17 3 6 22 12 41 15 19 2 -16 5
-77 5 -73 1 -113 6 -113 13 0 6 16 10 38 9 64 -3 158 1 142 7 -8 2 -22 7 -30
11 -24 9 -64 8 -72 -3 -5 -7 -14 -6 -27 2 -11 7 -27 10 -35 7 -8 -3 -17 -1
-21 5 -4 8 22 11 82 11 60 0 83 3 73 10 -12 8 -10 10 8 10 13 0 20 -4 17 -10
-4 -6 6 -10 22 -9 24 0 25 1 8 8 -20 8 -20 8 0 13 11 3 -34 6 -100 7 -141 3
-129 20 17 25 129 3 120 16 -12 16 -120 0 -149 10 -36 12 36 1 66 5 66 10 0 6
-28 7 -62 4 -35 -3 -70 -1 -78 4 -11 7 3 10 45 11 l60 2 -55 7 c-47 6 -38 7
60 10 l115 4 -105 3 c-58 2 -109 8 -115 14 -7 7 13 10 65 8 98 -3 155 0 148 7
-3 3 -56 5 -117 5 -99 0 -110 1 -97 14 16 17 77 22 116 11 20 -6 22 -5 10 4
-12 8 -4 10 32 8 26 -1 50 1 54 5 4 4 -46 8 -112 8 -113 2 -115 2 -49 9 39 5
91 6 118 4 28 -3 47 0 47 6 0 5 -3 9 -7 9 -5 -1 -10 -1 -13 0 -3 1 -43 4 -90
6 -47 1 -94 3 -104 4 -11 1 -16 4 -12 8 4 5 58 11 119 14 l112 5 -115 2 c-143
3 -132 22 13 22 91 0 97 1 97 21 0 19 -5 20 -87 19 -125 -2 -133 -1 -133 11 0
7 36 9 111 5 62 -3 108 -2 105 2 -8 7 -17 8 -151 11 -60 1 -76 4 -62 12 9 6
25 9 35 8 48 -4 183 2 178 9 -3 4 -50 7 -104 6 -55 -1 -106 2 -114 7 -13 9 21
13 82 10 25 -1 25 -1 3 9 -38 16 -26 21 45 20 115 -3 103 4 -20 10 -99 4 -113
7 -93 17 16 7 23 7 18 0 -4 -6 2 -8 18 -4 13 4 41 7 62 7 25 0 37 4 37 14 0 8
-9 14 -19 13 -11 0 -17 -5 -15 -9 3 -4 1 -8 -5 -8 -5 0 -12 6 -14 13 -4 10 -6
10 -6 0 -1 -7 -6 -13 -12 -13 -5 0 -7 5 -4 11 5 7 -4 8 -28 4 -21 -4 -37 -3
-41 4 -5 7 2 11 16 12 17 1 18 3 5 6 -9 2 -15 9 -11 14 3 5 10 7 15 4 5 -4 9
-1 9 4 0 6 -12 11 -27 12 -27 1 -26 1 6 11 19 5 43 7 53 5 10 -3 21 -1 24 4 3
5 32 7 65 5 32 -3 59 -1 59 4 0 14 -38 22 -98 19 -31 -1 -75 -2 -97 0 l-40 2
22 18 c19 16 20 20 7 25 -21 8 -10 23 21 28 13 3 22 1 19 -3 -3 -5 0 -9 5 -9
6 0 11 6 11 14 0 10 -13 16 -37 19 -35 3 -34 4 10 5 33 1 46 -2 45 -10 -2 -8
9 -13 29 -14 18 0 35 -3 38 -5 8 -8 65 2 65 12 0 5 -30 7 -67 4 -65 -4 -67 -3
-40 11 15 8 27 19 27 24 0 5 16 8 36 6 19 -1 38 2 41 7 4 6 1 7 -7 2 -10 -6
-12 -4 -7 8 7 18 -8 24 -18 7 -3 -5 -13 -10 -21 -10 -8 0 -12 5 -9 11 4 6 -2
5 -13 -2 -11 -7 -18 -18 -15 -25 6 -15 -17 -20 -78 -16 -55 4 -67 19 -16 20
64 0 77 2 77 11 0 4 -24 6 -52 5 -29 -2 -47 -1 -40 2 10 5 9 10 -5 21 -10 8
-12 12 -5 8 6 -3 12 -1 12 4 0 6 14 11 31 11 16 0 28 4 25 8 -3 5 -22 7 -43 6
-27 -3 -34 -1 -23 6 11 7 11 10 2 10 -7 0 -10 5 -7 10 5 8 11 7 21 -1 12 -10
13 -9 8 5 -3 9 -13 16 -22 16 -8 0 -12 3 -8 7 4 4 42 8 84 9 118 2 132 3 132
12 0 4 -37 6 -82 5 -46 -1 -101 2 -123 6 l-40 7 33 7 c38 8 42 32 7 41 -49 12
-14 25 58 21 48 -2 62 -1 42 5 -26 6 -22 8 25 9 39 0 51 -2 40 -9 -12 -8 -9
-10 13 -10 21 0 27 5 27 21 0 17 -5 20 -25 17 -15 -3 -22 -1 -18 5 3 6 2 7 -3
4 -14 -8 -164 -18 -175 -12 -5 4 -4 11 3 18 9 8 47 12 116 10 58 -1 102 2 102
8 0 5 -13 9 -30 9 -16 0 -30 5 -30 10 0 6 -5 10 -11 10 -5 0 -7 -4 -4 -10 4
-6 -15 -8 -52 -5 -32 2 -77 4 -101 5 -26 0 -41 4 -37 10 3 6 -1 10 -9 10 -9 0
-16 -4 -16 -10 0 -6 -9 -6 -26 0 -14 6 -30 7 -36 4 -18 -11 -1123 -5 -1126 6
-2 6 -25 9 -50 9 l-47 -2 40 -7 40 -7 -53 -2 c-33 0 -51 3 -47 9 3 6 1 10 -4
10 -6 0 -11 -5 -11 -10 0 -6 -25 -9 -59 -8 -48 2 -61 6 -64 20 -5 18 -37 25
-51 11 -4 -4 -26 -6 -49 -5 -23 1 -36 -1 -29 -4 37 -17 -3 -24 -138 -24 -125
0 -149 2 -138 13 9 10 24 11 57 5 42 -8 61 -5 48 8 -7 8 -143 8 -187 1 -20 -4
-25 -3 -12 1 13 4 -63 7 -168 8 -105 0 -187 -3 -183 -7z m153 -64 c0 -9 -10
-15 -25 -15 -14 0 -25 5 -25 11 0 6 -6 7 -12 2 -7 -4 -25 -6 -40 -4 -15 1 -35
-2 -46 -8 -14 -7 -24 -6 -39 4 -11 8 -23 11 -27 8 -3 -3 -6 -1 -6 5 0 7 35 11
110 11 90 0 110 -2 110 -14z m0 -42 c0 -10 -21 -13 -90 -13 -49 0 -90 4 -90 9
0 13 32 18 113 18 49 0 67 -4 67 -14z m1207 -9 c2 -6 -15 -11 -44 -12 -27 -1
-55 -3 -63 -4 -8 0 -35 0 -59 0 -49 2 -49 13 0 18 18 2 34 5 35 7 8 8 128 0
131 -9z m-667 -34 c0 -5 -25 -10 -55 -10 -30 0 -55 5 -55 10 0 6 25 10 55 10
30 0 55 -4 55 -10z m663 -10 c-3 -12 -14 -20 -27 -21 -20 -1 -20 -1 -1 -7 11
-4 21 -13 23 -21 2 -10 -6 -12 -35 -7 -27 4 -32 3 -18 -4 11 -5 14 -9 8 -9 -7
-1 -13 -11 -13 -23 1 -20 2 -21 13 -8 13 17 31 20 43 7 4 -4 9 -62 10 -130 3
-160 6 -508 4 -527 -2 -29 -40 106 -46 167 -5 46 -10 60 -20 56 -17 -6 -19 13
-3 23 8 4 4 13 -12 25 l-24 19 30 1 c24 1 25 3 7 6 -12 2 -20 9 -17 14 4 5 2
9 -3 9 -5 0 -9 14 -9 31 0 27 3 30 23 26 13 -2 21 0 18 4 -3 5 -14 9 -25 9
-10 0 -19 4 -19 9 0 5 -8 12 -17 14 -10 3 -2 6 17 7 l35 2 -35 13 c-34 13 -34
14 -8 14 36 1 27 31 -11 32 l-26 1 25 7 25 7 -24 6 c-39 11 -15 26 30 18 22
-4 37 -4 32 1 -4 4 -25 9 -46 11 -21 1 -41 6 -44 11 -3 5 9 6 26 4 22 -4 31
-1 31 9 0 7 -6 11 -12 9 -7 -3 -26 -1 -43 4 -28 9 -26 9 20 11 45 2 47 3 19 9
-62 15 -74 40 -21 43 l32 1 -32 4 c-18 2 -33 10 -34 16 0 7 -2 20 -4 29 -2 14
2 17 19 12 12 -3 37 2 56 10 38 17 33 18 -52 16 -48 -1 -57 1 -52 14 7 19 22
23 104 25 35 1 66 4 69 7 11 11 19 2 14 -16z m677 -15 c0 -8 -6 -16 -12 -17
-7 0 -24 -3 -38 -4 -66 -9 -86 -10 -102 -2 -28 13 -21 26 15 30 96 9 137 7
137 -7z m-1370 -15 c13 -11 21 -22 19 -24 -5 -6 -48 -10 -74 -7 -17 1 -18 3
-5 11 13 9 13 10 0 10 -9 0 -5 6 10 14 14 8 25 14 26 15 1 1 11 -8 24 -19z
m1348 -20 c11 0 17 -8 18 -22 0 -13 3 -45 7 -73 4 -27 9 -93 12 -145 4 -52 8
-101 10 -107 3 -7 1 -13 -3 -13 -10 0 -46 82 -61 137 -6 23 -19 49 -27 58 -9
8 -13 22 -10 30 4 10 -1 15 -14 15 -11 0 -20 5 -20 10 0 6 11 10 24 10 14 0
27 4 30 8 2 4 -12 7 -32 5 -32 -2 -34 -1 -12 6 25 9 25 9 2 10 -13 1 -21 5
-18 10 4 5 0 12 -6 15 -7 3 -1 4 14 2 15 -1 25 1 22 5 -3 5 -14 9 -25 9 -11 0
-17 5 -14 10 3 6 20 10 36 10 21 0 28 4 23 12 -5 8 -2 9 10 5 10 -4 25 -7 34
-7z m-1348 -39 c-5 -11 -10 -38 -10 -60 0 -43 -14 -55 -25 -21 -9 28 -3 83 10
92 21 16 36 9 25 -11z m1805 -941 c-22 -5 -44 -4 -49 1 -6 5 10 9 40 8 l49 -1
-40 -8z m-37 -261 c-22 -5 -47 -5 -60 1 -18 7 -9 9 37 8 56 0 58 -1 23 -9z"/>
<path d="M1050 2000 c30 -4 59 -3 65 1 5 5 -19 8 -55 8 l-65 -2 55 -7z"/>
<path d="M150 1923 c-25 -2 -54 -8 -65 -13 -11 -4 -27 -11 -35 -13 -8 -3 0 -6
18 -6 20 -1 31 3 27 9 -4 6 18 9 59 9 51 -1 63 -4 59 -15 -4 -11 -30 -14 -109
-14 -64 0 -104 -4 -104 -10 0 -7 38 -9 105 -7 79 2 105 0 105 -10 0 -8 -20
-13 -62 -14 -126 -2 -148 -4 -148 -11 0 -5 8 -9 18 -10 9 0 24 -2 32 -2 8 -1
29 1 47 5 18 4 36 2 42 -4 8 -8 11 -8 11 1 0 7 13 12 33 11 30 -1 31 -1 7 -9
-17 -5 -19 -8 -7 -9 9 -1 17 -4 18 -8 4 -38 4 -61 -1 -61 -3 0 -12 0 -20 -1
-13 -1 -12 -4 2 -14 20 -15 34 -130 45 -362 8 -172 7 -796 -1 -899 -8 -96 8
-128 77 -149 68 -21 206 -54 232 -56 136 -6 195 -6 195 1 0 7 -76 13 -103 9
-15 -2 -6 19 13 29 11 6 18 15 15 21 -4 5 9 9 27 10 27 0 29 2 13 8 -11 5 -25
6 -32 4 -6 -3 -20 0 -30 5 -20 12 -12 17 37 25 19 3 17 5 -10 6 -27 1 -31 4
-20 11 12 8 12 10 -5 10 -19 1 -19 1 -2 15 11 7 26 11 35 8 10 -5 13 -3 8 6
-5 7 -16 11 -26 8 -12 -3 -20 2 -23 15 -4 14 0 22 14 25 23 6 26 25 3 21 -23
-4 -29 19 -7 25 15 4 15 5 2 6 -19 1 -33 28 -19 36 6 3 6 15 0 30 -7 19 -6 26
6 33 14 8 14 10 2 15 -12 4 -14 24 -12 94 1 48 5 102 9 118 3 17 12 75 20 130
24 163 27 177 37 167 5 -5 11 -22 13 -38 2 -16 4 -29 5 -29 1 0 3 -11 5 -25 5
-46 35 -225 40 -249 3 -13 17 -107 30 -208 l25 -185 69 -111 c38 -62 77 -128
86 -147 10 -19 28 -48 40 -65 13 -16 25 -39 27 -50 3 -17 12 -20 63 -22 48 -1
54 0 31 7 -16 5 -42 6 -57 3 -19 -3 -29 -1 -29 6 0 6 14 14 31 18 l32 6 -34
11 c-22 8 -34 17 -33 29 1 9 -2 17 -8 17 -5 0 -7 4 -4 9 4 5 2 11 -3 13 -5 1
-25 37 -46 78 -21 41 -41 77 -45 80 -3 3 -19 28 -35 57 -15 28 -34 54 -41 57
-9 3 -14 20 -14 43 0 21 -16 139 -34 263 -19 124 -51 335 -72 470 -20 135 -39
252 -42 260 -6 19 -12 -11 -59 -330 -35 -238 -38 -270 -37 -470 1 -118 6 -246
12 -285 6 -38 9 -71 7 -73 -2 -2 -81 14 -175 35 l-173 38 7 145 c15 321 6 795
-24 1235 -5 77 -9 150 -10 163 0 15 -6 21 -17 20 -10 -1 -38 -3 -63 -5z"/>
<path d="M2830 1846 c0 -19 26 -38 46 -34 29 5 27 26 -3 31 -15 2 7 2 50 -1
42 -3 77 -1 77 4 0 5 -38 10 -85 12 -67 2 -85 -1 -85 -12z"/>
<path d="M55 1790 l-60 -7 50 -1 c28 0 70 3 95 7 40 8 41 8 10 8 -19 0 -62 -3
-95 -7z"/>
<path d="M7 1763 c-15 -14 -5 -18 41 -14 36 3 42 6 27 12 -25 10 -60 11 -68 2z"/>
<path d="M145 1750 c-11 -5 -42 -9 -70 -9 -27 -1 -57 -6 -65 -12 -11 -7 2 -9
45 -6 33 2 66 5 74 8 7 2 16 -2 18 -8 3 -10 -16 -13 -74 -15 l-78 -2 75 -6 75
-6 -72 -2 c-42 -1 -73 -6 -73 -12 0 -7 28 -9 72 -8 62 3 73 1 76 -14 3 -14 -3
-18 -22 -18 -14 0 -26 5 -26 10 0 16 -70 12 -86 -5 -17 -17 -12 -18 83 -15
l51 1 0 -45 0 -46 -76 -1 c-55 -1 -68 -3 -47 -9 l30 -7 -30 -5 c-17 -3 3 -6
43 -7 42 0 72 3 72 9 0 6 4 10 9 10 5 0 8 -8 7 -17 -2 -15 -17 -19 -82 -24
-61 -4 -69 -6 -34 -9 27 -1 36 -5 22 -7 -12 -2 -20 -9 -17 -14 4 -5 18 -3 33
5 15 7 40 14 55 14 23 0 27 -4 25 -22 -2 -11 -14 -27 -27 -33 -28 -15 -34 -16
-27 -4 7 11 -53 19 -85 10 l-24 -7 25 -2 25 -2 -25 -7 c-40 -11 -3 -19 67 -13
40 3 60 8 56 15 -3 5 -1 7 5 3 6 -3 11 -31 11 -60 0 -45 -4 -55 -20 -59 -10
-3 -19 -10 -19 -16 0 -9 5 -9 20 -1 18 9 20 8 20 -15 0 -23 -4 -25 -47 -26
-27 -1 -63 0 -81 1 -28 1 -32 -1 -32 -25 0 -25 2 -26 32 -19 18 3 54 8 81 9
26 1 51 6 55 10 8 8 7 321 -1 428 -4 45 -2 67 6 67 8 0 8 3 0 11 -6 6 -9 18
-6 25 6 16 6 16 -22 4z"/>
<path d="M2880 1751 l25 -8 -25 -5 c-14 -3 -2 -5 27 -5 29 0 50 4 47 9 -3 5
-15 6 -26 2 -14 -4 -18 -2 -14 5 5 7 -4 11 -26 10 -31 -1 -31 -2 -8 -8z"/>
<path d="M2825 1552 c-10 -10 -5 -22 11 -22 9 0 13 5 9 13 -4 6 1 3 9 -7 16
-19 16 -19 30 -1 12 16 17 17 44 6 32 -13 77 -7 67 10 -6 9 -160 10 -170 1z"/>
<path d="M2945 1400 c-3 -4 9 -10 25 -12 19 -3 30 0 30 7 0 14 -47 17 -55 5z"/>
<path d="M1186 1378 c-18 -87 -70 -368 -91 -493 -29 -167 -52 -585 -40 -712 6
-69 8 -73 31 -73 13 0 24 5 24 10 0 6 -6 10 -13 10 -8 0 -14 7 -14 15 0 8 7
15 16 15 14 0 14 2 1 10 -10 6 57 10 200 11 118 1 219 1 223 0 5 -1 7 4 5 11
-3 9 -28 12 -89 9 -240 -9 -319 -7 -319 9 0 12 -2 13 -9 1 -10 -16 -31 -6 -31
15 0 8 11 14 28 15 l27 1 -25 8 c-22 7 -22 8 -5 11 18 2 155 5 344 8 41 1 71
4 67 8 -5 5 -249 13 -414 13 -23 0 -32 4 -29 13 4 12 14 13 252 17 109 2 107
18 -3 19 -39 1 -61 5 -57 11 3 5 2 10 -4 10 -5 0 -12 -4 -15 -9 -10 -15 -75
-18 -80 -4 -3 7 -13 13 -23 12 -11 0 -13 -3 -5 -6 21 -8 4 -21 -23 -16 -13 3
-22 9 -19 14 3 5 0 9 -7 9 -8 0 -8 4 2 16 8 10 22 14 41 10 15 -3 30 -2 32 3
3 5 -12 11 -34 15 -55 9 -50 26 8 26 36 0 44 -3 32 -11 -12 -9 -12 -10 3 -5
10 3 21 6 23 6 3 0 2 5 -1 10 -3 6 -24 10 -46 10 -23 0 -47 7 -55 15 -14 13
-14 15 0 15 8 0 18 5 22 12 4 6 3 8 -4 4 -6 -3 -13 -2 -17 4 -3 5 0 10 7 10 9
0 9 3 -2 10 -13 9 -13 10 0 10 9 0 11 3 5 8 -10 7 -13 50 -5 67 3 6 5 24 5 40
0 17 4 33 9 37 6 4 6 11 -1 20 -6 7 -9 20 -7 28 2 8 5 22 6 30 2 8 7 20 11 27
4 6 3 13 -3 15 -6 2 -4 27 5 68 7 36 18 90 24 120 29 157 44 213 51 199 10
-19 34 -126 65 -289 25 -130 42 -175 70 -186 24 -10 53 15 76 66 14 32 25 46
30 38 4 -7 16 -70 27 -139 24 -143 34 -172 68 -187 36 -17 456 -126 482 -125
14 1 22 -5 22 -16 1 -14 2 -14 11 2 6 11 23 17 47 18 l37 1 -30 8 c-16 4 -141
37 -276 74 -135 36 -257 66 -271 66 -25 0 -25 1 -66 253 -23 139 -42 265 -42
280 0 57 -17 24 -28 -55 -16 -121 -55 -252 -75 -256 -10 -2 -18 5 -21 20 -2
13 -29 154 -60 313 -31 160 -56 300 -56 312 0 30 -18 39 -24 11z"/>
<path d="M25 1351 c17 -4 29 -12 28 -19 -3 -13 44 -28 54 -18 4 3 1 12 -6 19
-9 9 -14 9 -20 -1 -6 -11 -10 -10 -15 4 -5 14 -2 16 29 11 21 -3 33 -2 30 4
-4 5 -34 8 -68 8 -47 -1 -55 -3 -32 -8z"/>
<path d="M160 1157 c0 -24 -1 -24 -80 -21 -49 3 -80 0 -80 -6 0 -6 34 -10 80
-10 l80 0 0 -50 0 -49 -82 -4 -83 -3 85 -2 86 -2 -4 -36 c-4 -34 -6 -35 -41
-34 -72 4 -121 0 -121 -9 0 -5 35 -8 80 -5 67 4 80 2 80 -11 0 -12 -15 -15
-82 -15 -45 0 -78 -3 -75 -7 4 -3 39 -5 78 -4 72 2 115 -13 87 -30 -16 -11
-68 -12 -68 -1 0 4 -23 7 -50 8 -35 0 -50 -3 -50 -12 0 -9 15 -13 48 -12 112
4 124 -2 114 -59 -4 -22 -9 -23 -85 -23 -44 0 -77 -3 -74 -7 4 -4 43 -6 87 -5
49 0 78 -3 75 -9 -4 -5 -40 -8 -81 -6 -41 2 -77 0 -80 -5 -3 -4 33 -8 79 -8
79 0 85 -1 80 -19 -4 -17 -13 -19 -61 -18 -32 1 -59 5 -62 9 -3 3 -14 0 -24
-8 -18 -12 -11 -14 62 -14 45 0 82 -4 82 -9 0 -11 -52 -21 -77 -15 -11 3 -35
1 -54 -5 -29 -9 -21 -10 49 -7 l82 3 0 -29 c0 -29 -22 -39 -36 -16 -5 7 -2 8
7 3 12 -7 12 -5 1 6 -10 11 -14 11 -21 1 -4 -7 -14 -10 -22 -7 -9 3 -29 -1
-45 -10 -28 -15 -27 -15 46 -15 l76 0 -4 -37 c-4 -38 -4 -38 -48 -38 -46 -1
-60 11 -21 18 22 4 22 4 0 6 -12 0 -28 -5 -35 -12 -7 -7 -23 -12 -35 -11 -13
1 -20 -3 -16 -9 3 -5 29 -7 62 -4 78 9 99 2 93 -29 -4 -24 -7 -25 -73 -21 -37
2 -74 0 -81 -4 -8 -5 21 -9 70 -9 51 0 82 -4 82 -11 0 -6 -27 -10 -75 -8 -41
1 -78 -1 -82 -4 -3 -4 5 -7 18 -8 l24 -1 -25 -8 c-21 -7 -17 -8 20 -8 34 -1
40 2 25 8 -14 6 -4 9 38 9 50 1 57 -1 57 -18 0 -12 -8 -21 -22 -24 l-23 -4 23
-2 c20 -1 22 -6 22 -51 l0 -49 -42 5 c-58 8 -60 14 -7 15 41 2 40 2 -16 9 -32
4 -68 4 -80 0 -17 -7 -15 -9 13 -9 39 -1 43 -16 5 -19 -43 -3 -42 -14 2 -12
22 1 59 2 83 1 40 -1 42 -3 42 -31 0 -26 -4 -30 -27 -30 -35 0 -27 -6 20 -14
27 -5 37 -4 32 3 -3 6 -6 129 -5 274 0 144 1 370 1 502 0 164 -3 241 -10 243
-6 2 -11 -7 -11 -21z"/>
<path d="M25 1099 c-25 -6 -23 -7 18 -8 26 0 47 3 47 7 0 9 -25 10 -65 1z"/>
<path d="M20 1049 c-16 -4 1 -7 48 -7 40 0 75 4 78 9 6 11 -88 9 -126 -2z"/>
<path d="M0 978 c0 -5 32 -8 70 -8 39 0 70 4 70 9 0 5 -31 9 -70 8 -38 -1 -70
-5 -70 -9z"/>
<path d="M2937 983 c-3 -5 10 -9 29 -10 19 -1 34 2 34 8 0 11 -57 12 -63 2z"/>
<path d="M50 830 c-7 -4 -21 -7 -31 -5 -12 3 -16 -1 -12 -11 4 -10 12 -12 27
-8 11 4 27 7 34 7 6 0 12 4 12 8 0 13 -15 18 -30 9z"/>
<path d="M98 795 c-3 -3 -26 -6 -52 -7 -65 -1 -57 -18 9 -18 30 0 55 4 55 10
0 5 6 7 14 4 8 -3 17 -1 21 5 6 11 -37 16 -47 6z"/>
<path d="M2827 704 c4 -12 143 -16 143 -3 0 4 8 9 18 12 9 2 -24 4 -74 3 -60
-1 -90 -5 -87 -12z"/>
<path d="M0 548 c0 -11 118 -10 124 1 3 4 -24 8 -59 7 -36 0 -65 -4 -65 -8z"/>
<path d="M2900 490 c-10 -7 1 -9 37 -7 29 2 55 6 58 9 10 9 -80 8 -95 -2z"/>
<path d="M1210 420 c0 -8 130 -3 139 6 2 2 -28 4 -67 4 -40 0 -72 -4 -72 -10z"/>
<path d="M2210 399 c0 -5 -4 -7 -10 -4 -5 3 -10 1 -10 -5 0 -15 42 -8 48 8 2
6 -3 12 -12 12 -9 0 -16 -5 -16 -11z"/>
<path d="M1194 389 c-8 -14 22 -15 61 -3 l40 13 -48 -2 c-27 -1 -51 -5 -53 -8z"/>
<path d="M2823 362 c-13 -2 -23 -7 -23 -12 0 -4 17 -6 38 -3 27 4 42 1 51 -11
7 -9 28 -16 45 -15 28 0 29 1 9 9 -26 11 -31 30 -7 30 8 0 13 -3 11 -7 -3 -5
8 -9 24 -10 20 -2 29 2 29 13 0 13 -13 15 -77 12 -43 -2 -88 -4 -100 -6z"/>
<path d="M60 353 c-24 -3 -48 -10 -52 -16 -16 -25 -8 -37 25 -37 24 0 28 3 17
10 -12 7 -8 10 15 10 23 0 27 -3 15 -10 -12 -8 -9 -10 13 -10 16 0 26 4 22 9
-3 5 3 12 12 14 10 3 -11 6 -47 8 -50 2 -56 3 -25 6 22 3 44 9 50 14 5 5 7 8
5 7 -3 -1 -25 -3 -50 -5z"/>
<path d="M2154 345 c-4 -10 -15 -13 -33 -10 -22 5 -23 4 -6 -4 27 -13 95 -13
95 -1 0 6 -11 8 -27 4 -16 -4 -24 -3 -20 2 5 5 34 12 65 15 l57 6 -63 2 c-47
1 -64 -3 -68 -14z"/>
<path d="M2783 303 c4 -3 2 -12 -4 -19 -7 -9 -6 -12 8 -9 10 1 17 8 16 14 -4
13 -6 13 37 1 39 -12 160 -3 160 11 0 13 -64 11 -78 -3 -9 -9 -12 -9 -12 0 0
8 -21 12 -67 12 -36 0 -63 -3 -60 -7z"/>
<path d="M2086 283 c-4 -9 24 -11 106 -8 60 2 113 6 116 9 3 3 -8 6 -24 7
-173 4 -194 3 -198 -8z"/>
<path d="M2826 263 c-4 -5 -32 -9 -62 -9 -30 -1 -58 -4 -61 -8 -4 -4 27 -6 70
-4 42 2 77 7 78 13 1 12 -15 18 -25 8z"/>
<path d="M2936 260 c15 -16 66 -21 61 -6 -2 6 -19 12 -38 14 -25 3 -31 1 -23
-8z"/>
<path d="M2205 250 c-14 -6 2 -9 49 -9 38 -1 67 1 65 3 -9 10 -95 14 -114 6z"/>
<path d="M2041 246 c8 -8 139 -15 139 -7 0 4 -32 8 -72 9 -40 2 -70 1 -67 -2z"/>
<path d="M570 228 c0 -3 29 -7 65 -7 36 0 69 -2 73 -5 4 -2 14 -1 22 4 12 7
11 9 -5 9 -11 1 -50 2 -87 4 -38 1 -68 -1 -68 -5z"/>
<path d="M2089 207 c5 -5 35 -10 67 -11 36 -2 51 0 39 5 -13 5 -1 7 35 7 45 0
50 -2 25 -8 -30 -8 -30 -8 8 -9 21 0 36 3 32 8 -3 5 5 12 17 14 13 3 -34 5
-104 4 -70 -1 -123 -6 -119 -10z"/>
<path d="M2712 214 c3 -3 21 -6 39 -6 19 0 41 -6 49 -12 13 -10 13 -9 1 7 -9
11 -27 17 -54 17 -22 0 -38 -3 -35 -6z"/>
<path d="M70 200 c11 -8 5 -10 -22 -8 -21 1 -40 -1 -44 -5 -4 -4 10 -7 32 -8
38 -1 38 -1 10 -9 -16 -5 -34 -6 -39 -3 -6 3 -7 1 -3 -6 10 -15 77 -6 88 12
14 22 8 37 -14 37 -19 0 -20 -2 -8 -10z"/>
<path d="M2830 200 c-13 -8 -13 -10 2 -10 12 0 15 -5 11 -16 -5 -15 14 -14 65
2 7 2 10 -1 7 -6 -3 -6 4 -10 17 -10 17 0 19 3 9 9 -11 7 -11 9 0 14 8 3 3 6
-11 7 -32 3 -31 3 -54 -6 -15 -6 -17 -4 -11 6 5 8 4 11 -3 6 -5 -3 -12 -2 -14
4 -2 6 -8 6 -18 0z"/>
<path d="M610 190 c20 -13 90 -13 90 0 0 6 -24 10 -52 10 -38 0 -49 -3 -38
-10z"/>
<path d="M663 173 c-46 -2 -83 -7 -83 -11 0 -10 150 -3 169 8 9 5 12 9 6 8 -5
-1 -47 -4 -92 -5z"/>
<path d="M2160 170 l-135 -6 137 -2 c83 -1 139 2 143 8 3 6 3 9 -2 8 -4 -1
-69 -5 -143 -8z"/>
<path d="M2724 171 c7 -10 76 -13 76 -3 0 4 -18 8 -40 9 -22 1 -38 -2 -36 -6z"/>
<path d="M2264 141 c4 -5 0 -11 -6 -14 -7 -3 14 -5 46 -5 38 0 55 3 46 8 -8 5
-18 6 -22 3 -5 -2 -16 1 -25 9 -12 9 -15 9 -9 1 4 -7 2 -13 -3 -13 -6 0 -11 5
-11 10 0 6 -5 10 -11 10 -5 0 -8 -4 -5 -9z"/>
<path d="M2730 139 c-52 -5 -53 -6 -15 -9 22 -2 63 -3 90 -2 28 0 83 1 124 1
41 1 72 3 69 6 -8 8 -205 11 -268 4z"/>
<path d="M4 115 c-1 -17 5 -20 37 -20 22 0 39 3 39 6 0 3 25 4 56 2 31 -2 54
0 50 5 -3 5 -32 8 -66 8 -61 -1 -82 9 -32 17 15 2 2 3 -28 3 -48 -1 -55 -4
-56 -21z"/>
<path d="M1114 131 c3 -5 16 -7 29 -4 17 4 19 2 7 -6 -20 -14 -10 -20 18 -10
32 12 18 29 -24 29 -19 0 -33 -4 -30 -9z"/>
<path d="M1200 125 c0 -17 11 -20 26 -6 5 5 18 11 29 14 11 3 4 5 -17 6 -28 1
-38 -3 -38 -14z"/>
<path d="M1363 133 c15 -2 25 -9 22 -14 -4 -5 11 -8 32 -8 23 1 29 3 16 6 -13
2 -23 9 -23 14 0 5 -17 8 -37 8 -31 -2 -33 -3 -10 -6z"/>
<path d="M2332 105 c7 -8 108 -9 115 -1 3 3 -22 6 -57 6 -35 0 -61 -2 -58 -5z"/>
<path d="M2567 103 c-3 -5 93 -8 214 -9 120 0 219 3 219 8 0 10 -427 11 -433
1z"/>
<path d="M1280 82 c0 -5 10 -8 23 -8 12 1 21 -4 20 -11 -4 -17 5 -16 23 1 20
21 19 22 -26 24 -22 2 -40 -1 -40 -6z"/>
<path d="M1414 68 c-3 -5 -15 -8 -25 -5 -10 3 -22 0 -26 -5 -4 -8 6 -9 33 -5
21 4 59 7 83 7 24 0 42 2 39 6 -11 10 -98 12 -104 2z"/>
<path d="M1691 71 c-8 -5 -19 -7 -25 -5 -13 4 -52 -23 -44 -31 3 -3 13 1 21
10 17 17 32 20 22 5 -10 -17 5 -11 27 10 23 21 22 26 -1 11z"/>
<path d="M2875 71 c-3 -6 -44 -8 -90 -7 -47 2 -85 0 -85 -4 0 -14 14 -19 26
-9 7 6 19 7 25 3 15 -9 237 -9 246 0 4 3 -12 6 -35 6 -23 0 -42 5 -42 10 0 13
-37 13 -45 1z"/>
<path d="M224 61 c-6 -7 -42 -9 -139 -10 -61 -1 -85 -4 -75 -11 8 -5 24 -7 35
-5 11 2 83 6 159 9 77 3 141 8 143 10 3 2 -23 6 -57 8 -34 1 -64 1 -66 -1z"/>
<path d="M696 61 c-9 -13 -52 -19 -70 -9 -10 6 -16 5 -16 -2 0 -5 8 -11 18
-12 9 -1 -19 -5 -63 -8 l-80 -6 110 -1 c69 0 99 2 80 7 l-30 8 33 1 c23 1 31
5 26 13 -5 7 -2 9 8 6 8 -4 21 -2 29 3 10 6 7 9 -13 9 -15 0 -29 -4 -32 -9z"/>
<path d="M1104 62 c2 -4 44 -9 92 -10 48 -1 84 1 80 5 -10 10 -179 15 -172 5z"/>
<path d="M2042 65 c3 -3 57 -6 119 -6 63 -1 105 -4 94 -8 -17 -7 -17 -8 8 -13
19 -4 27 -1 27 8 0 8 10 14 23 14 16 0 18 -3 8 -9 -27 -17 5 -17 39 0 35 18
34 18 -144 19 -99 0 -177 -2 -174 -5z"/>
<path d="M2430 61 c0 -6 -11 -11 -24 -11 -14 0 -28 -5 -32 -12 -5 -8 -2 -9 12
-4 10 4 48 9 84 12 73 5 93 14 32 14 -22 0 -47 3 -56 6 -9 3 -16 1 -16 -5z"/>
<path d="M1506 43 c-1 -1 -81 -3 -179 -4 -97 -1 -177 -5 -177 -9 0 -6 155 -6
403 1 26 1 47 6 47 10 0 8 -86 9 -94 2z"/>
<path d="M758 32 c-21 -2 -38 -7 -38 -11 0 -10 91 -2 102 8 8 7 -5 8 -64 3z"/>
<path d="M1818 33 c23 -2 61 -2 85 0 23 2 4 4 -43 4 -47 0 -66 -2 -42 -4z"/>
<path d="M2673 18 c-18 -5 -33 -11 -33 -14 0 -6 69 2 76 9 11 11 -12 14 -43 5z"/>
<path d="M2740 19 c0 -5 59 -9 132 -9 72 0 129 3 125 6 -10 10 -257 13 -257 3z"/>
<path d="M3 14 c7 -8 118 -6 125 1 3 3 -25 5 -63 5 -38 0 -65 -3 -62 -6z"/>
<path d="M2333 13 c9 -8 125 -8 134 1 3 3 -27 6 -67 6 -40 0 -70 -3 -67 -7z"/>
<path d="M2485 10 c6 -9 93 -5 103 5 3 3 -20 5 -52 5 -34 0 -55 -4 -51 -10z"/>
</g>
</svg>
